<svg width="257" height="50" viewBox="0 0 257 50" fill="none" xmlns="http://www.w3.org/2000/svg">
<path fill-rule="evenodd" clip-rule="evenodd" d="M24.9998 2.60425C12.6311 2.60425 2.604 12.6313 2.604 25.0001C2.604 28.8667 3.58525 32.5105 5.31234 35.6876L3.67275 44.5063C3.62662 44.7555 3.64179 45.0122 3.71697 45.2543C3.79215 45.4963 3.92508 45.7164 4.10429 45.8956C4.2835 46.0748 4.50362 46.2078 4.74565 46.2829C4.98769 46.3581 5.24438 46.3733 5.49359 46.3272L14.3123 44.6855C17.5917 46.4697 21.2666 47.4016 24.9998 47.3959C37.3686 47.3959 47.3957 37.3688 47.3957 25.0001C47.3957 12.6313 37.3686 2.60425 24.9998 2.60425ZM26.5623 14.5834C26.5623 14.169 26.3977 13.7716 26.1047 13.4786C25.8117 13.1855 25.4142 13.0209 24.9998 13.0209C24.5854 13.0209 24.188 13.1855 23.895 13.4786C23.602 13.7716 23.4373 14.169 23.4373 14.5834V16.1813H14.5832C14.1688 16.1813 13.7713 16.346 13.4783 16.639C13.1853 16.932 13.0207 17.3294 13.0207 17.7438C13.0207 18.1582 13.1853 18.5557 13.4783 18.8487C13.7713 19.1417 14.1688 19.3063 14.5832 19.3063H29.5269C28.4603 22.0688 26.8478 24.7438 24.9707 27.2438C24.5868 26.7554 24.2118 26.2602 23.8457 25.7584C23.0623 24.6834 22.4748 23.7751 22.2478 23.2938C22.0715 22.9187 21.7534 22.6289 21.3635 22.4882C20.9736 22.3476 20.5438 22.3676 20.1686 22.5438C19.7934 22.7201 19.5036 23.0382 19.363 23.4281C19.2223 23.818 19.2423 24.2478 19.4186 24.623C19.7873 25.4042 20.5394 26.5272 21.3186 27.598C21.8436 28.3167 22.4165 29.0626 22.9665 29.7438C20.9553 32.0781 18.7982 34.2825 16.5082 36.3438C16.2015 36.6229 16.0183 37.0123 15.9987 37.4264C15.9792 37.8406 16.125 38.2455 16.404 38.5522C16.683 38.8588 17.0725 39.0421 17.4866 39.0616C17.9007 39.0811 18.3057 38.9354 18.6123 38.6563C20.8996 36.5932 23.0611 34.3948 25.0853 32.073L28.3436 35.4272C28.486 35.5766 28.6566 35.6963 28.8456 35.7794C29.0345 35.8625 29.2381 35.9074 29.4445 35.9114C29.6509 35.9154 29.856 35.8784 30.048 35.8027C30.24 35.7269 30.4152 35.6139 30.5632 35.47C30.7113 35.3262 30.8294 35.1545 30.9108 34.9648C30.9921 34.775 31.035 34.5711 31.0371 34.3646C31.0391 34.1582 31.0002 33.9535 30.9227 33.7622C30.8451 33.5708 30.7305 33.3968 30.5853 33.2501L27.0769 29.6397C29.4728 26.5313 31.5978 23.0355 32.8478 19.3063H35.4165C35.8309 19.3063 36.2283 19.1417 36.5214 18.8487C36.8144 18.5557 36.979 18.1582 36.979 17.7438C36.979 17.3294 36.8144 16.932 36.5214 16.639C36.2283 16.346 35.8309 16.1813 35.4165 16.1813H26.5623V14.5834Z" fill="#FF9B37"/>
<path d="M77.408 13.664V17.28H71.456V36H66.976V17.28H61.024V13.664H77.408ZM85.1568 21.024C85.7328 20.0853 86.4794 19.3493 87.3968 18.816C88.3354 18.2827 89.4021 18.016 90.5968 18.016V22.72H89.4128C88.0048 22.72 86.9381 23.0507 86.2128 23.712C85.5088 24.3733 85.1568 25.5253 85.1568 27.168V36H80.6768V18.272H85.1568V21.024ZM92.4622 27.072C92.4622 25.28 92.8142 23.6907 93.5182 22.304C94.2436 20.9173 95.2143 19.8507 96.4303 19.104C97.6676 18.3573 99.0436 17.984 100.558 17.984C101.881 17.984 103.033 18.2507 104.014 18.784C105.017 19.3173 105.817 19.9893 106.414 20.8V18.272H110.926V36H106.414V33.408C105.838 34.24 105.038 34.9333 104.014 35.488C103.012 36.0213 101.849 36.288 100.526 36.288C99.0329 36.288 97.6676 35.904 96.4303 35.136C95.2143 34.368 94.2436 33.2907 93.5182 31.904C92.8142 30.496 92.4622 28.8853 92.4622 27.072ZM106.414 27.136C106.414 26.048 106.201 25.12 105.774 24.352C105.348 23.5627 104.772 22.9653 104.046 22.56C103.321 22.1333 102.542 21.92 101.71 21.92C100.878 21.92 100.11 22.1227 99.4062 22.528C98.7023 22.9333 98.1263 23.5307 97.6783 24.32C97.2516 25.088 97.0383 26.0053 97.0383 27.072C97.0383 28.1387 97.2516 29.0773 97.6783 29.888C98.1263 30.6773 98.7023 31.2853 99.4062 31.712C100.132 32.1387 100.9 32.352 101.71 32.352C102.542 32.352 103.321 32.1493 104.046 31.744C104.772 31.3173 105.348 30.72 105.774 29.952C106.201 29.1627 106.414 28.224 106.414 27.136ZM125.126 18.016C127.238 18.016 128.944 18.688 130.246 20.032C131.547 21.3547 132.198 23.2107 132.198 25.6V36H127.718V26.208C127.718 24.8 127.366 23.7227 126.662 22.976C125.958 22.208 124.998 21.824 123.782 21.824C122.544 21.824 121.563 22.208 120.838 22.976C120.134 23.7227 119.782 24.8 119.782 26.208V36H115.302V18.272H119.782V20.48C120.379 19.712 121.136 19.1147 122.054 18.688C122.992 18.24 124.016 18.016 125.126 18.016ZM143.242 36.288C141.791 36.288 140.49 36.032 139.338 35.52C138.186 34.9867 137.269 34.272 136.586 33.376C135.925 32.48 135.562 31.488 135.498 30.4H140.01C140.095 31.0827 140.426 31.648 141.002 32.096C141.599 32.544 142.335 32.768 143.21 32.768C144.063 32.768 144.725 32.5973 145.194 32.256C145.685 31.9147 145.93 31.4773 145.93 30.944C145.93 30.368 145.631 29.9413 145.034 29.664C144.458 29.3653 143.53 29.0453 142.25 28.704C140.927 28.384 139.839 28.0533 138.986 27.712C138.154 27.3707 137.429 26.848 136.81 26.144C136.213 25.44 135.914 24.4907 135.914 23.296C135.914 22.3147 136.191 21.4187 136.746 20.608C137.322 19.7973 138.133 19.1573 139.178 18.688C140.245 18.2187 141.493 17.984 142.922 17.984C145.034 17.984 146.719 18.5173 147.978 19.584C149.237 20.6293 149.93 22.048 150.058 23.84H145.77C145.706 23.136 145.407 22.5813 144.874 22.176C144.362 21.7493 143.669 21.536 142.794 21.536C141.983 21.536 141.354 21.6853 140.906 21.984C140.479 22.2827 140.266 22.6987 140.266 23.232C140.266 23.8293 140.565 24.288 141.162 24.608C141.759 24.9067 142.687 25.216 143.946 25.536C145.226 25.856 146.282 26.1867 147.114 26.528C147.946 26.8693 148.661 27.4027 149.258 28.128C149.877 28.832 150.197 29.7707 150.218 30.944C150.218 31.968 149.93 32.8853 149.354 33.696C148.799 34.5067 147.989 35.1467 146.922 35.616C145.877 36.064 144.65 36.288 143.242 36.288ZM158.376 12.32V36H153.896V12.32H158.376ZM161.65 27.072C161.65 25.28 162.002 23.6907 162.706 22.304C163.431 20.9173 164.402 19.8507 165.618 19.104C166.855 18.3573 168.231 17.984 169.746 17.984C171.068 17.984 172.22 18.2507 173.202 18.784C174.204 19.3173 175.004 19.9893 175.602 20.8V18.272H180.114V36H175.602V33.408C175.026 34.24 174.226 34.9333 173.202 35.488C172.199 36.0213 171.036 36.288 169.714 36.288C168.22 36.288 166.855 35.904 165.618 35.136C164.402 34.368 163.431 33.2907 162.706 31.904C162.002 30.496 161.65 28.8853 161.65 27.072ZM175.602 27.136C175.602 26.048 175.388 25.12 174.962 24.352C174.535 23.5627 173.959 22.9653 173.234 22.56C172.508 22.1333 171.73 21.92 170.898 21.92C170.066 21.92 169.298 22.1227 168.594 22.528C167.89 22.9333 167.314 23.5307 166.866 24.32C166.439 25.088 166.226 26.0053 166.226 27.072C166.226 28.1387 166.439 29.0773 166.866 29.888C167.314 30.6773 167.89 31.2853 168.594 31.712C169.319 32.1387 170.087 32.352 170.898 32.352C171.73 32.352 172.508 32.1493 173.234 31.744C173.959 31.3173 174.535 30.72 174.962 29.952C175.388 29.1627 175.602 28.224 175.602 27.136ZM189.705 21.952V30.528C189.705 31.1253 189.844 31.5627 190.121 31.84C190.42 32.096 190.911 32.224 191.593 32.224H193.673V36H190.857C187.081 36 185.193 34.1653 185.193 30.496V21.952H183.081V18.272H185.193V13.888H189.705V18.272H193.673V21.952H189.705ZM213.376 26.752C213.376 27.392 213.333 27.968 213.248 28.48H200.288C200.394 29.76 200.842 30.7627 201.632 31.488C202.421 32.2133 203.392 32.576 204.544 32.576C206.208 32.576 207.392 31.8613 208.096 30.432H212.928C212.416 32.1387 211.434 33.5467 209.984 34.656C208.533 35.744 206.752 36.288 204.64 36.288C202.933 36.288 201.397 35.9147 200.032 35.168C198.688 34.4 197.632 33.3227 196.864 31.936C196.117 30.5493 195.743 28.9493 195.743 27.136C195.743 25.3013 196.117 23.6907 196.864 22.304C197.61 20.9173 198.656 19.8507 200 19.104C201.344 18.3573 202.89 17.984 204.64 17.984C206.325 17.984 207.829 18.3467 209.152 19.072C210.496 19.7973 211.53 20.832 212.256 22.176C213.002 23.4987 213.376 25.024 213.376 26.752ZM208.736 25.472C208.714 24.32 208.298 23.4027 207.488 22.72C206.677 22.016 205.685 21.664 204.512 21.664C203.402 21.664 202.464 22.0053 201.696 22.688C200.949 23.3493 200.49 24.2773 200.32 25.472H208.736Z" fill="white"/>
<path d="M230.022 24.48C231.323 24.7573 232.368 25.408 233.158 26.432C233.947 27.4347 234.342 28.5867 234.342 29.888C234.342 31.7653 233.68 33.2587 232.358 34.368C231.056 35.456 229.232 36 226.886 36H216.422V13.536H226.534C228.816 13.536 230.598 14.0587 231.878 15.104C233.179 16.1493 233.83 17.568 233.83 19.36C233.83 20.6827 233.478 21.7813 232.774 22.656C232.091 23.5307 231.174 24.1387 230.022 24.48ZM221.894 22.624H225.478C226.374 22.624 227.056 22.432 227.526 22.048C228.016 21.6427 228.262 21.056 228.262 20.288C228.262 19.52 228.016 18.9333 227.526 18.528C227.056 18.1227 226.374 17.92 225.478 17.92H221.894V22.624ZM225.926 31.584C226.843 31.584 227.547 31.3813 228.038 30.976C228.55 30.5493 228.806 29.9413 228.806 29.152C228.806 28.3627 228.539 27.744 228.006 27.296C227.494 26.848 226.779 26.624 225.862 26.624H221.894V31.584H225.926ZM248.971 36L244.299 27.52H242.987V36H237.515V13.536H246.699C248.47 13.536 249.974 13.8453 251.211 14.464C252.47 15.0827 253.409 15.936 254.027 17.024C254.646 18.0907 254.955 19.2853 254.955 20.608C254.955 22.1013 254.529 23.4347 253.675 24.608C252.843 25.7813 251.606 26.6133 249.963 27.104L255.147 36H248.971ZM242.987 23.648H246.379C247.382 23.648 248.129 23.4027 248.619 22.912C249.131 22.4213 249.387 21.728 249.387 20.832C249.387 19.9787 249.131 19.3067 248.619 18.816C248.129 18.3253 247.382 18.08 246.379 18.08H242.987V23.648Z" fill="#FF9B37"/>
</svg>
