<svg width="144" height="28" viewBox="0 0 257 50" fill="none" xmlns="http://www.w3.org/2000/svg">
<path fill-rule="evenodd" clip-rule="evenodd" d="M25.0003 2.60449C12.6316 2.60449 2.60449 12.6316 2.60449 25.0003C2.60449 28.867 3.58574 32.5107 5.31283 35.6878L3.67324 44.5066C3.6271 44.7558 3.64228 45.0125 3.71746 45.2545C3.79264 45.4965 3.92557 45.7167 4.10478 45.8959C4.28399 46.0751 4.50411 46.208 4.74614 46.2832C4.98818 46.3584 5.24487 46.3735 5.49408 46.3274L14.3128 44.6857C17.5922 46.4699 21.2671 47.4019 25.0003 47.3962C37.3691 47.3962 47.3962 37.3691 47.3962 25.0003C47.3962 12.6316 37.3691 2.60449 25.0003 2.60449ZM26.5628 14.5837C26.5628 14.1693 26.3982 13.7718 26.1052 13.4788C25.8122 13.1858 25.4147 13.0212 25.0003 13.0212C24.5859 13.0212 24.1885 13.1858 23.8955 13.4788C23.6024 13.7718 23.4378 14.1693 23.4378 14.5837V16.1816H14.5837C14.1693 16.1816 13.7718 16.3462 13.4788 16.6392C13.1858 16.9322 13.0212 17.3297 13.0212 17.7441C13.0212 18.1585 13.1858 18.5559 13.4788 18.8489C13.7718 19.142 14.1693 19.3066 14.5837 19.3066H29.5274C28.4607 22.0691 26.8482 24.7441 24.9712 27.2441C24.5873 26.7557 24.2123 26.2605 23.8462 25.7587C23.0628 24.6837 22.4753 23.7753 22.2482 23.2941C22.072 22.9189 21.7539 22.6291 21.364 22.4885C20.9741 22.3478 20.5442 22.3678 20.1691 22.5441C19.7939 22.7203 19.5041 23.0384 19.3635 23.4283C19.2228 23.8182 19.2428 24.2481 19.4191 24.6232C19.7878 25.4045 20.5399 26.5274 21.3191 27.5982C21.8441 28.317 22.417 29.0628 22.967 29.7441C20.9558 32.0783 18.7987 34.2827 16.5087 36.3441C16.202 36.6231 16.0187 37.0125 15.9992 37.4267C15.9797 37.8408 16.1255 38.2457 16.4045 38.5524C16.6835 38.8591 17.0729 39.0423 17.4871 39.0619C17.9012 39.0814 18.3062 38.9356 18.6128 38.6566C20.9001 36.5934 23.0616 34.395 25.0857 32.0732L28.3441 35.4274C28.4865 35.5768 28.6571 35.6966 28.8461 35.7797C29.035 35.8628 29.2386 35.9076 29.445 35.9116C29.6514 35.9156 29.8565 35.8787 30.0485 35.8029C30.2405 35.7272 30.4157 35.6141 30.5637 35.4703C30.7118 35.3265 30.8299 35.1547 30.9113 34.965C30.9926 34.7753 31.0355 34.5713 31.0376 34.3649C31.0396 34.1585 31.0007 33.9537 30.9232 33.7624C30.8456 33.5711 30.7309 33.397 30.5857 33.2503L27.0774 29.6399C29.4732 26.5316 31.5982 23.0357 32.8482 19.3066H35.417C35.8314 19.3066 36.2288 19.142 36.5218 18.8489C36.8149 18.5559 36.9795 18.1585 36.9795 17.7441C36.9795 17.3297 36.8149 16.9322 36.5218 16.6392C36.2288 16.3462 35.8314 16.1816 35.417 16.1816H26.5628V14.5837Z" fill="#FF9B37"/>
<path d="M77.408 13.664V17.28H71.456V36H66.976V17.28H61.024V13.664H77.408ZM85.1568 21.024C85.7328 20.0853 86.4794 19.3493 87.3968 18.816C88.3354 18.2827 89.4021 18.016 90.5968 18.016V22.72H89.4128C88.0048 22.72 86.9381 23.0507 86.2128 23.712C85.5088 24.3733 85.1568 25.5253 85.1568 27.168V36H80.6768V18.272H85.1568V21.024ZM92.4622 27.072C92.4622 25.28 92.8142 23.6907 93.5182 22.304C94.2436 20.9173 95.2143 19.8507 96.4303 19.104C97.6676 18.3573 99.0436 17.984 100.558 17.984C101.881 17.984 103.033 18.2507 104.014 18.784C105.017 19.3173 105.817 19.9893 106.414 20.8V18.272H110.926V36H106.414V33.408C105.838 34.24 105.038 34.9333 104.014 35.488C103.012 36.0213 101.849 36.288 100.526 36.288C99.0329 36.288 97.6676 35.904 96.4303 35.136C95.2143 34.368 94.2436 33.2907 93.5182 31.904C92.8142 30.496 92.4622 28.8853 92.4622 27.072ZM106.414 27.136C106.414 26.048 106.201 25.12 105.774 24.352C105.348 23.5627 104.772 22.9653 104.046 22.56C103.321 22.1333 102.542 21.92 101.71 21.92C100.878 21.92 100.11 22.1227 99.4062 22.528C98.7023 22.9333 98.1263 23.5307 97.6783 24.32C97.2516 25.088 97.0383 26.0053 97.0383 27.072C97.0383 28.1387 97.2516 29.0773 97.6783 29.888C98.1263 30.6773 98.7023 31.2853 99.4062 31.712C100.132 32.1387 100.9 32.352 101.71 32.352C102.542 32.352 103.321 32.1493 104.046 31.744C104.772 31.3173 105.348 30.72 105.774 29.952C106.201 29.1627 106.414 28.224 106.414 27.136ZM125.126 18.016C127.238 18.016 128.944 18.688 130.246 20.032C131.547 21.3547 132.198 23.2107 132.198 25.6V36H127.718V26.208C127.718 24.8 127.366 23.7227 126.662 22.976C125.958 22.208 124.998 21.824 123.782 21.824C122.544 21.824 121.563 22.208 120.838 22.976C120.134 23.7227 119.782 24.8 119.782 26.208V36H115.302V18.272H119.782V20.48C120.379 19.712 121.136 19.1147 122.054 18.688C122.992 18.24 124.016 18.016 125.126 18.016ZM143.242 36.288C141.791 36.288 140.49 36.032 139.338 35.52C138.186 34.9867 137.269 34.272 136.586 33.376C135.925 32.48 135.562 31.488 135.498 30.4H140.01C140.095 31.0827 140.426 31.648 141.002 32.096C141.599 32.544 142.335 32.768 143.21 32.768C144.063 32.768 144.725 32.5973 145.194 32.256C145.685 31.9147 145.93 31.4773 145.93 30.944C145.93 30.368 145.631 29.9413 145.034 29.664C144.458 29.3653 143.53 29.0453 142.25 28.704C140.927 28.384 139.839 28.0533 138.986 27.712C138.154 27.3707 137.429 26.848 136.81 26.144C136.213 25.44 135.914 24.4907 135.914 23.296C135.914 22.3147 136.191 21.4187 136.746 20.608C137.322 19.7973 138.133 19.1573 139.178 18.688C140.245 18.2187 141.493 17.984 142.922 17.984C145.034 17.984 146.719 18.5173 147.978 19.584C149.237 20.6293 149.93 22.048 150.058 23.84H145.77C145.706 23.136 145.407 22.5813 144.874 22.176C144.362 21.7493 143.669 21.536 142.794 21.536C141.983 21.536 141.354 21.6853 140.906 21.984C140.479 22.2827 140.266 22.6987 140.266 23.232C140.266 23.8293 140.565 24.288 141.162 24.608C141.759 24.9067 142.687 25.216 143.946 25.536C145.226 25.856 146.282 26.1867 147.114 26.528C147.946 26.8693 148.661 27.4027 149.258 28.128C149.877 28.832 150.197 29.7707 150.218 30.944C150.218 31.968 149.93 32.8853 149.354 33.696C148.799 34.5067 147.989 35.1467 146.922 35.616C145.877 36.064 144.65 36.288 143.242 36.288ZM158.376 12.32V36H153.896V12.32H158.376ZM161.65 27.072C161.65 25.28 162.002 23.6907 162.706 22.304C163.431 20.9173 164.402 19.8507 165.618 19.104C166.855 18.3573 168.231 17.984 169.746 17.984C171.068 17.984 172.22 18.2507 173.202 18.784C174.204 19.3173 175.004 19.9893 175.602 20.8V18.272H180.114V36H175.602V33.408C175.026 34.24 174.226 34.9333 173.202 35.488C172.199 36.0213 171.036 36.288 169.714 36.288C168.22 36.288 166.855 35.904 165.618 35.136C164.402 34.368 163.431 33.2907 162.706 31.904C162.002 30.496 161.65 28.8853 161.65 27.072ZM175.602 27.136C175.602 26.048 175.388 25.12 174.962 24.352C174.535 23.5627 173.959 22.9653 173.234 22.56C172.508 22.1333 171.73 21.92 170.898 21.92C170.066 21.92 169.298 22.1227 168.594 22.528C167.89 22.9333 167.314 23.5307 166.866 24.32C166.439 25.088 166.226 26.0053 166.226 27.072C166.226 28.1387 166.439 29.0773 166.866 29.888C167.314 30.6773 167.89 31.2853 168.594 31.712C169.319 32.1387 170.087 32.352 170.898 32.352C171.73 32.352 172.508 32.1493 173.234 31.744C173.959 31.3173 174.535 30.72 174.962 29.952C175.388 29.1627 175.602 28.224 175.602 27.136ZM189.705 21.952V30.528C189.705 31.1253 189.844 31.5627 190.121 31.84C190.42 32.096 190.911 32.224 191.593 32.224H193.673V36H190.857C187.081 36 185.193 34.1653 185.193 30.496V21.952H183.081V18.272H185.193V13.888H189.705V18.272H193.673V21.952H189.705ZM213.376 26.752C213.376 27.392 213.333 27.968 213.248 28.48H200.288C200.394 29.76 200.842 30.7627 201.632 31.488C202.421 32.2133 203.392 32.576 204.544 32.576C206.208 32.576 207.392 31.8613 208.096 30.432H212.928C212.416 32.1387 211.434 33.5467 209.984 34.656C208.533 35.744 206.752 36.288 204.64 36.288C202.933 36.288 201.397 35.9147 200.032 35.168C198.688 34.4 197.632 33.3227 196.864 31.936C196.117 30.5493 195.743 28.9493 195.743 27.136C195.743 25.3013 196.117 23.6907 196.864 22.304C197.61 20.9173 198.656 19.8507 200 19.104C201.344 18.3573 202.89 17.984 204.64 17.984C206.325 17.984 207.829 18.3467 209.152 19.072C210.496 19.7973 211.53 20.832 212.256 22.176C213.002 23.4987 213.376 25.024 213.376 26.752ZM208.736 25.472C208.714 24.32 208.298 23.4027 207.488 22.72C206.677 22.016 205.685 21.664 204.512 21.664C203.402 21.664 202.464 22.0053 201.696 22.688C200.949 23.3493 200.49 24.2773 200.32 25.472H208.736Z" fill="white"/>
<path d="M230.022 24.48C231.323 24.7573 232.368 25.408 233.158 26.432C233.947 27.4347 234.342 28.5867 234.342 29.888C234.342 31.7653 233.68 33.2587 232.358 34.368C231.056 35.456 229.232 36 226.886 36H216.422V13.536H226.534C228.816 13.536 230.598 14.0587 231.878 15.104C233.179 16.1493 233.83 17.568 233.83 19.36C233.83 20.6827 233.478 21.7813 232.774 22.656C232.091 23.5307 231.174 24.1387 230.022 24.48ZM221.894 22.624H225.478C226.374 22.624 227.056 22.432 227.526 22.048C228.016 21.6427 228.262 21.056 228.262 20.288C228.262 19.52 228.016 18.9333 227.526 18.528C227.056 18.1227 226.374 17.92 225.478 17.92H221.894V22.624ZM225.926 31.584C226.843 31.584 227.547 31.3813 228.038 30.976C228.55 30.5493 228.806 29.9413 228.806 29.152C228.806 28.3627 228.539 27.744 228.006 27.296C227.494 26.848 226.779 26.624 225.862 26.624H221.894V31.584H225.926ZM248.971 36L244.299 27.52H242.987V36H237.515V13.536H246.699C248.47 13.536 249.974 13.8453 251.211 14.464C252.47 15.0827 253.409 15.936 254.027 17.024C254.646 18.0907 254.955 19.2853 254.955 20.608C254.955 22.1013 254.529 23.4347 253.675 24.608C252.843 25.7813 251.606 26.6133 249.963 27.104L255.147 36H248.971ZM242.987 23.648H246.379C247.382 23.648 248.129 23.4027 248.619 22.912C249.131 22.4213 249.387 21.728 249.387 20.832C249.387 19.9787 249.131 19.3067 248.619 18.816C248.129 18.3253 247.382 18.08 246.379 18.08H242.987V23.648Z" fill="#FF9B37"/>
</svg>
