<svg width="50" height="50" viewBox="0 0 50 50" fill="none" xmlns="http://www.w3.org/2000/svg">
<path fill-rule="evenodd" clip-rule="evenodd" d="M24.9998 2.60425C12.6311 2.60425 2.604 12.6313 2.604 25.0001C2.604 28.8667 3.58525 32.5105 5.31234 35.6876L3.67275 44.5063C3.62662 44.7555 3.64179 45.0122 3.71697 45.2543C3.79215 45.4963 3.92508 45.7164 4.10429 45.8956C4.2835 46.0748 4.50362 46.2078 4.74565 46.2829C4.98769 46.3581 5.24438 46.3733 5.49359 46.3272L14.3123 44.6855C17.5917 46.4696 21.2666 47.4016 24.9998 47.3959C37.3686 47.3959 47.3957 37.3688 47.3957 25.0001C47.3957 12.6313 37.3686 2.60425 24.9998 2.60425ZM26.5623 14.5834C26.5623 14.169 26.3977 13.7716 26.1047 13.4786C25.8117 13.1855 25.4142 13.0209 24.9998 13.0209C24.5854 13.0209 24.188 13.1855 23.895 13.4786C23.602 13.7716 23.4373 14.169 23.4373 14.5834V16.1813H14.5832C14.1688 16.1813 13.7713 16.346 13.4783 16.639C13.1853 16.932 13.0207 17.3294 13.0207 17.7438C13.0207 18.1582 13.1853 18.5557 13.4783 18.8487C13.7713 19.1417 14.1688 19.3063 14.5832 19.3063H29.5269C28.4603 22.0688 26.8478 24.7438 24.9707 27.2438C24.5868 26.7554 24.2118 26.2602 23.8457 25.7584C23.0623 24.6834 22.4748 23.7751 22.2478 23.2938C22.0715 22.9187 21.7534 22.6289 21.3635 22.4882C20.9736 22.3476 20.5438 22.3676 20.1686 22.5438C19.7934 22.7201 19.5036 23.0382 19.363 23.4281C19.2223 23.818 19.2423 24.2478 19.4186 24.623C19.7873 25.4042 20.5394 26.5272 21.3186 27.598C21.8436 28.3167 22.4165 29.0626 22.9665 29.7438C20.9553 32.0781 18.7982 34.2825 16.5082 36.3438C16.2015 36.6229 16.0183 37.0123 15.9987 37.4264C15.9792 37.8406 16.125 38.2455 16.404 38.5522C16.683 38.8588 17.0725 39.0421 17.4866 39.0616C17.9007 39.0811 18.3057 38.9354 18.6123 38.6563C20.8996 36.5932 23.0611 34.3948 25.0853 32.073L28.3436 35.4272C28.486 35.5766 28.6566 35.6963 28.8456 35.7794C29.0345 35.8625 29.2381 35.9074 29.4445 35.9114C29.6509 35.9154 29.856 35.8784 30.048 35.8027C30.2401 35.7269 30.4152 35.6139 30.5632 35.47C30.7113 35.3262 30.8294 35.1545 30.9108 34.9648C30.9921 34.775 31.035 34.5711 31.0371 34.3646C31.0391 34.1582 31.0002 33.9535 30.9227 33.7622C30.8451 33.5708 30.7305 33.3968 30.5853 33.2501L27.0769 29.6397C29.4728 26.5313 31.5978 23.0355 32.8478 19.3063H35.4165C35.8309 19.3063 36.2283 19.1417 36.5214 18.8487C36.8144 18.5557 36.979 18.1582 36.979 17.7438C36.979 17.3294 36.8144 16.932 36.5214 16.639C36.2283 16.346 35.8309 16.1813 35.4165 16.1813H26.5623V14.5834Z" fill="#FF9B37"/>
</svg>
